<svg width="32" height="32" viewBox="0 0 32 32" fill="none" xmlns="http://www.w3.org/2000/svg">
<path d="M19.364 13.9H16.9V12.5C16.9 11.779 16.956 11.324 17.992 11.324H19.301V9.098C18.664 9.028 18.027 9 17.383 9C15.486 9 14.1 10.162 14.1 12.29V13.9H12V16.7H14.1V23H16.9V16.7H19.049L19.364 13.9Z" fill="white"/>
<path d="M16 1C24.27 1 31 7.73 31 16C31 24.27 24.27 31 16 31C7.73 31 1 24.27 1 16C1 7.73 7.73 1 16 1ZM16 0C7.16 0 0 7.16 0 16C0 24.84 7.16 32 16 32C24.84 32 32 24.84 32 16C32 7.16 24.84 0 16 0Z" fill="white"/>
</svg>
