<svg width="32" height="32" viewBox="0 0 32 32" fill="none" xmlns="http://www.w3.org/2000/svg">
<path d="M13.499 10C11.5695 10 10 11.571 10 13.501V18.501C10 20.4305 11.571 22 13.501 22H18.501C20.4305 22 22 20.429 22 18.499V13.499C22 11.5695 20.429 10 18.499 10H13.499ZM19.5 12C19.776 12 20 12.224 20 12.5C20 12.776 19.776 13 19.5 13C19.224 13 19 12.776 19 12.5C19 12.224 19.224 12 19.5 12ZM16 13C17.6545 13 19 14.3455 19 16C19 17.6545 17.6545 19 16 19C14.3455 19 13 17.6545 13 16C13 14.3455 14.3455 13 16 13ZM16 14C15.4696 14 14.9609 14.2107 14.5858 14.5858C14.2107 14.9609 14 15.4696 14 16C14 16.5304 14.2107 17.0391 14.5858 17.4142C14.9609 17.7893 15.4696 18 16 18C16.5304 18 17.0391 17.7893 17.4142 17.4142C17.7893 17.0391 18 16.5304 18 16C18 15.4696 17.7893 14.9609 17.4142 14.5858C17.0391 14.2107 16.5304 14 16 14Z" fill="white"/>
<path d="M16 1C24.27 1 31 7.73 31 16C31 24.27 24.27 31 16 31C7.73 31 1 24.27 1 16C1 7.73 7.73 1 16 1ZM16 0C7.16 0 0 7.16 0 16C0 24.84 7.16 32 16 32C24.84 32 32 24.84 32 16C32 7.16 24.84 0 16 0Z" fill="white"/>
</svg>
