<svg width="32" height="32" viewBox="0 0 32 32" fill="none" xmlns="http://www.w3.org/2000/svg">
<path d="M23 12.1464C22.4847 12.3753 21.9312 12.5293 21.3502 12.5987C21.9436 12.2434 22.3986 11.6807 22.6129 11.0098C22.0583 11.3388 21.4434 11.5779 20.7886 11.7071C20.2647 11.1487 19.5184 10.7998 18.6925 10.7998C17.1062 10.7998 15.8204 12.0861 15.8204 13.6718C15.8204 13.8969 15.8463 14.1166 15.8947 14.3261C13.5078 14.2065 11.3918 13.0629 9.97458 11.3248C9.72797 11.7491 9.58636 12.2423 9.58636 12.7694C9.58636 13.7655 10.093 14.6448 10.8635 15.1596C10.3929 15.1445 9.94981 15.0153 9.56267 14.8004C9.56267 14.8128 9.56267 14.8241 9.56267 14.8365C9.56267 16.2284 10.5523 17.3892 11.8667 17.6525C11.626 17.7182 11.3718 17.7532 11.1096 17.7532C10.9249 17.7532 10.7445 17.7349 10.5696 17.7021C10.9352 18.843 11.9959 19.6738 13.2526 19.697C12.27 20.4675 11.0315 20.9268 9.68544 20.9268C9.45391 20.9268 9.22507 20.9133 9 20.8864C10.2713 21.7011 11.7805 22.1765 13.4028 22.1765C18.686 22.1765 21.5742 17.8001 21.5742 14.0046C21.5742 13.8802 21.5715 13.7564 21.5661 13.6331C22.1277 13.2276 22.615 12.722 23 12.1464Z" fill="white"/>
<path d="M16 1C24.27 1 31 7.73 31 16C31 24.27 24.27 31 16 31C7.73 31 1 24.27 1 16C1 7.73 7.73 1 16 1ZM16 0C7.16 0 0 7.16 0 16C0 24.84 7.16 32 16 32C24.84 32 32 24.84 32 16C32 7.16 24.84 0 16 0Z" fill="white"/>
</svg>
