<svg width="32" height="32" viewBox="0 0 32 32" fill="none" xmlns="http://www.w3.org/2000/svg">
<path fill-rule="evenodd" clip-rule="evenodd" d="M21.1475 11.3895C21.8632 11.5519 22.4798 12.0721 22.6092 12.7865C22.7716 13.5985 22.934 14.7354 23 16.197C22.967 17.6257 22.8046 18.7955 22.6752 19.6076C22.5445 20.3549 21.9279 20.8421 21.2135 21.0045C20.0767 21.2316 18.1278 21.3941 15.9835 21.3941C13.8392 21.3941 11.8903 21.2316 10.7535 21.0045C10.0392 20.8421 9.42251 20.3219 9.29183 19.6076C9.12942 18.7955 9 17.6587 9 16.197C9 14.7354 9.12942 13.5985 9.26011 12.7865C9.38952 12.0392 10.0074 11.5519 10.7218 11.3895C11.7939 11.1624 13.8075 11 15.9505 11C18.0948 11 20.0767 11.1624 21.1475 11.3895ZM18.407 16.3848L14.4446 18.6585V14.1111L18.407 16.3848Z" fill="white"/>
<path d="M16 1C24.27 1 31 7.73 31 16C31 24.27 24.27 31 16 31C7.73 31 1 24.27 1 16C1 7.73 7.73 1 16 1ZM16 0C7.16 0 0 7.16 0 16C0 24.84 7.16 32 16 32C24.84 32 32 24.84 32 16C32 7.16 24.84 0 16 0Z" fill="white"/>
</svg>
